<?xml version="1.0" encoding="UTF-8" standalone="no"?>
<!DOCTYPE svg PUBLIC "-//W3C//DTD SVG 1.1//EN"
 "http://www.w3.org/Graphics/SVG/1.1/DTD/svg11.dtd">
<!-- Generated by graphviz version 3.0.0 (20220226.1711)
 -->
<!-- Pages: 1 -->
<svg width="577pt" height="58pt"
 viewBox="0.00 0.00 577.39 57.60" xmlns="http://www.w3.org/2000/svg" xmlns:xlink="http://www.w3.org/1999/xlink">
<g id="graph0" class="graph" transform="scale(1 1) rotate(0) translate(4 53.6)">
<polygon fill="white" stroke="transparent" points="-4,4 -4,-53.6 573.39,-53.6 573.39,4 -4,4"/>
<!-- start -->
<g id="node1" class="node">
<title>start</title>
<text text-anchor="middle" x="27" y="-21.1" font-family="Times New Roman,serif" font-size="14.00">start</text>
</g>
<!-- S0 -->
<g id="node2" class="node">
<title>S0</title>
<ellipse fill="none" stroke="black" cx="111.8" cy="-24.8" rx="20.6" ry="20.6"/>
<text text-anchor="middle" x="111.8" y="-21.1" font-family="Times New Roman,serif" font-size="14.00">S0</text>
</g>
<!-- start&#45;&gt;S0 -->
<g id="edge1" class="edge">
<title>start&#45;&gt;S0</title>
<path fill="none" stroke="black" d="M54.2,-24.8C62.62,-24.8 72.01,-24.8 80.69,-24.8"/>
<polygon fill="black" stroke="black" points="80.81,-28.3 90.81,-24.8 80.81,-21.3 80.81,-28.3"/>
</g>
<!-- S1 -->
<g id="node3" class="node">
<title>S1</title>
<ellipse fill="none" stroke="black" cx="253.39" cy="-24.8" rx="20.6" ry="20.6"/>
<text text-anchor="middle" x="253.39" y="-21.1" font-family="Times New Roman,serif" font-size="14.00">S1</text>
</g>
<!-- S0&#45;&gt;S1 -->
<g id="edge2" class="edge">
<title>S0&#45;&gt;S1</title>
<path fill="none" stroke="black" d="M132.8,-24.8C156.23,-24.8 195.27,-24.8 222.35,-24.8"/>
<polygon fill="black" stroke="black" points="222.43,-28.3 232.43,-24.8 222.43,-21.3 222.43,-28.3"/>
<text text-anchor="middle" x="182.6" y="-28.6" font-family="Times New Roman,serif" font-size="14.00">Transition l</text>
</g>
<!-- S2 -->
<g id="node4" class="node">
<title>S2</title>
<ellipse fill="none" stroke="black" cx="398.99" cy="-24.8" rx="20.6" ry="20.6"/>
<text text-anchor="middle" x="398.99" y="-21.1" font-family="Times New Roman,serif" font-size="14.00">S2</text>
</g>
<!-- S1&#45;&gt;S2 -->
<g id="edge3" class="edge">
<title>S1&#45;&gt;S2</title>
<path fill="none" stroke="black" d="M274.36,-24.8C298.55,-24.8 339.55,-24.8 367.65,-24.8"/>
<polygon fill="black" stroke="black" points="367.73,-28.3 377.73,-24.8 367.73,-21.3 367.73,-28.3"/>
<text text-anchor="middle" x="326.19" y="-28.6" font-family="Times New Roman,serif" font-size="14.00">Transition o</text>
</g>
<!-- S3 -->
<g id="node5" class="node">
<title>S3</title>
<ellipse fill="none" stroke="black" cx="544.59" cy="-24.8" rx="20.63" ry="20.63"/>
<ellipse fill="none" stroke="black" cx="544.59" cy="-24.8" rx="24.6" ry="24.6"/>
<text text-anchor="middle" x="544.59" y="-21.1" font-family="Times New Roman,serif" font-size="14.00">S3</text>
</g>
<!-- S2&#45;&gt;S3 -->
<g id="edge4" class="edge">
<title>S2&#45;&gt;S3</title>
<path fill="none" stroke="black" d="M419.96,-24.8C443.05,-24.8 481.47,-24.8 509.36,-24.8"/>
<polygon fill="black" stroke="black" points="509.48,-28.3 519.48,-24.8 509.48,-21.3 509.48,-28.3"/>
<text text-anchor="middle" x="469.79" y="-28.6" font-family="Times New Roman,serif" font-size="14.00">Transition l</text>
</g>
</g>
</svg>
