<?xml version="1.0" encoding="UTF-8" standalone="no"?>
<!DOCTYPE svg PUBLIC "-//W3C//DTD SVG 1.1//EN"
 "http://www.w3.org/Graphics/SVG/1.1/DTD/svg11.dtd">
<!-- Generated by graphviz version 3.0.0 (20220226.1711)
 -->
<!-- Pages: 1 -->
<svg width="1077pt" height="176pt"
 viewBox="0.00 0.00 1077.17 176.23" xmlns="http://www.w3.org/2000/svg" xmlns:xlink="http://www.w3.org/1999/xlink">
<g id="graph0" class="graph" transform="scale(1 1) rotate(0) translate(4 172.23)">
<polygon fill="white" stroke="transparent" points="-4,4 -4,-172.23 1073.17,-172.23 1073.17,4 -4,4"/>
<!-- start -->
<g id="node1" class="node">
<title>start</title>
<text text-anchor="middle" x="27" y="-78.73" font-family="Times New Roman,serif" font-size="14.00">start</text>
</g>
<!-- S0 -->
<g id="node2" class="node">
<title>S0</title>
<ellipse fill="none" stroke="black" cx="111.8" cy="-82.43" rx="20.6" ry="20.6"/>
<text text-anchor="middle" x="111.8" y="-78.73" font-family="Times New Roman,serif" font-size="14.00">S0</text>
</g>
<!-- start&#45;&gt;S0 -->
<g id="edge1" class="edge">
<title>start&#45;&gt;S0</title>
<path fill="none" stroke="black" d="M54.2,-82.43C62.62,-82.43 72.01,-82.43 80.69,-82.43"/>
<polygon fill="black" stroke="black" points="80.81,-85.93 90.81,-82.43 80.81,-78.93 80.81,-85.93"/>
</g>
<!-- S1 -->
<g id="node3" class="node">
<title>S1</title>
<ellipse fill="none" stroke="black" cx="256.39" cy="-82.43" rx="20.6" ry="20.6"/>
<text text-anchor="middle" x="256.39" y="-78.73" font-family="Times New Roman,serif" font-size="14.00">S1</text>
</g>
<!-- S0&#45;&gt;S1 -->
<g id="edge2" class="edge">
<title>S0&#45;&gt;S1</title>
<path fill="none" stroke="black" d="M132.63,-82.43C156.65,-82.43 197.36,-82.43 225.27,-82.43"/>
<polygon fill="black" stroke="black" points="225.28,-85.93 235.28,-82.43 225.28,-78.93 225.28,-85.93"/>
<text text-anchor="middle" x="184.1" y="-86.23" font-family="Times New Roman,serif" font-size="14.00">Transition a</text>
</g>
<!-- S2 -->
<g id="node4" class="node">
<title>S2</title>
<ellipse fill="none" stroke="black" cx="340.99" cy="-82.43" rx="20.6" ry="20.6"/>
<text text-anchor="middle" x="340.99" y="-78.73" font-family="Times New Roman,serif" font-size="14.00">S2</text>
</g>
<!-- S1&#45;&gt;S2 -->
<g id="edge3" class="edge">
<title>S1&#45;&gt;S2</title>
<path fill="none" stroke="black" d="M277.39,-82.43C287.13,-82.43 299.04,-82.43 309.86,-82.43"/>
<polygon fill="black" stroke="black" points="310.18,-85.93 320.18,-82.43 310.18,-78.93 310.18,-85.93"/>
<text text-anchor="middle" x="298.69" y="-86.23" font-family="Times New Roman,serif" font-size="14.00">ε</text>
</g>
<!-- S7 -->
<g id="node6" class="node">
<title>S7</title>
<ellipse fill="none" stroke="black" cx="425.59" cy="-82.43" rx="20.6" ry="20.6"/>
<text text-anchor="middle" x="425.59" y="-78.73" font-family="Times New Roman,serif" font-size="14.00">S7</text>
</g>
<!-- S2&#45;&gt;S7 -->
<g id="edge4" class="edge">
<title>S2&#45;&gt;S7</title>
<path fill="none" stroke="black" d="M361.99,-82.43C371.72,-82.43 383.64,-82.43 394.45,-82.43"/>
<polygon fill="black" stroke="black" points="394.78,-85.93 404.78,-82.43 394.78,-78.93 394.78,-85.93"/>
<text text-anchor="middle" x="383.29" y="-86.23" font-family="Times New Roman,serif" font-size="14.00">ε</text>
</g>
<!-- S10 -->
<g id="node5" class="node">
<title>S10</title>
<ellipse fill="none" stroke="black" cx="1040.47" cy="-82.43" rx="24.87" ry="24.87"/>
<ellipse fill="none" stroke="black" cx="1040.47" cy="-82.43" rx="28.9" ry="28.9"/>
<text text-anchor="middle" x="1040.47" y="-78.73" font-family="Times New Roman,serif" font-size="14.00">S10</text>
</g>
<!-- S3 -->
<g id="node7" class="node">
<title>S3</title>
<ellipse fill="none" stroke="black" cx="558.18" cy="-147.43" rx="20.6" ry="20.6"/>
<text text-anchor="middle" x="558.18" y="-143.73" font-family="Times New Roman,serif" font-size="14.00">S3</text>
</g>
<!-- S7&#45;&gt;S3 -->
<g id="edge9" class="edge">
<title>S7&#45;&gt;S3</title>
<path fill="none" stroke="black" d="M441.62,-96.14C448.26,-101.71 456.37,-107.89 464.39,-112.43 484.61,-123.9 509.31,-133 528.14,-139.05"/>
<polygon fill="black" stroke="black" points="527.34,-142.47 537.93,-142.09 529.42,-135.78 527.34,-142.47"/>
<text text-anchor="middle" x="491.89" y="-139.23" font-family="Times New Roman,serif" font-size="14.00"> &#160;&#160;&#160;&#160;ε &#160;&#160;&#160;&#160;</text>
</g>
<!-- S8 -->
<g id="node9" class="node">
<title>S8</title>
<ellipse fill="none" stroke="black" cx="788.38" cy="-82.43" rx="20.6" ry="20.6"/>
<text text-anchor="middle" x="788.38" y="-78.73" font-family="Times New Roman,serif" font-size="14.00">S8</text>
</g>
<!-- S7&#45;&gt;S8 -->
<g id="edge11" class="edge">
<title>S7&#45;&gt;S8</title>
<path fill="none" stroke="black" d="M446.59,-83.69C452.33,-84 458.6,-84.28 464.39,-84.43 591.09,-87.78 622.87,-87.78 749.58,-84.43 752.11,-84.37 754.73,-84.27 757.36,-84.17"/>
<polygon fill="black" stroke="black" points="757.55,-87.66 767.38,-83.69 757.22,-80.67 757.55,-87.66"/>
<text text-anchor="middle" x="630.98" y="-90.23" font-family="Times New Roman,serif" font-size="14.00">ε &#160;&#160;&#160;&#160;</text>
</g>
<!-- S5 -->
<g id="node10" class="node">
<title>S5</title>
<ellipse fill="none" stroke="black" cx="558.18" cy="-49.43" rx="20.6" ry="20.6"/>
<text text-anchor="middle" x="558.18" y="-45.73" font-family="Times New Roman,serif" font-size="14.00">S5</text>
</g>
<!-- S7&#45;&gt;S5 -->
<g id="edge10" class="edge">
<title>S7&#45;&gt;S5</title>
<path fill="none" stroke="black" d="M445.29,-75.51C451.34,-73.4 458.1,-71.18 464.39,-69.43 485.22,-63.63 509.08,-58.52 527.39,-54.92"/>
<polygon fill="black" stroke="black" points="528.31,-58.31 537.47,-52.98 526.98,-51.43 528.31,-58.31"/>
<text text-anchor="middle" x="491.89" y="-73.23" font-family="Times New Roman,serif" font-size="14.00"> &#160;&#160;&#160;&#160;&#160;ε &#160;&#160;&#160;&#160;&#160;&#160;</text>
</g>
<!-- S4 -->
<g id="node8" class="node">
<title>S4</title>
<ellipse fill="none" stroke="black" cx="703.78" cy="-147.43" rx="20.6" ry="20.6"/>
<text text-anchor="middle" x="703.78" y="-143.73" font-family="Times New Roman,serif" font-size="14.00">S4</text>
</g>
<!-- S3&#45;&gt;S4 -->
<g id="edge5" class="edge">
<title>S3&#45;&gt;S4</title>
<path fill="none" stroke="black" d="M579.15,-147.43C603.34,-147.43 644.34,-147.43 672.44,-147.43"/>
<polygon fill="black" stroke="black" points="672.52,-150.93 682.52,-147.43 672.52,-143.93 672.52,-150.93"/>
<text text-anchor="middle" x="630.98" y="-151.23" font-family="Times New Roman,serif" font-size="14.00">Transition b</text>
</g>
<!-- S4&#45;&gt;S8 -->
<g id="edge6" class="edge">
<title>S4&#45;&gt;S8</title>
<path fill="none" stroke="black" d="M720.98,-134.83C729.5,-128.18 740.12,-119.88 749.58,-112.43 754.1,-108.87 758.92,-105.06 763.55,-101.39"/>
<polygon fill="black" stroke="black" points="765.93,-103.97 771.58,-95.01 761.57,-98.49 765.93,-103.97"/>
<text text-anchor="middle" x="746.08" y="-120.23" font-family="Times New Roman,serif" font-size="14.00">ε</text>
</g>
<!-- S8&#45;&gt;S7 -->
<g id="edge12" class="edge">
<title>S8&#45;&gt;S7</title>
<path fill="none" stroke="black" d="M776.3,-65.33C765.28,-50.04 746.83,-28.67 724.58,-19.43 647.74,12.47 618.71,-1.91 537.39,-19.43 502.58,-26.94 494.78,-33.89 464.39,-52.43 459.47,-55.43 454.47,-58.99 449.78,-62.58"/>
<polygon fill="black" stroke="black" points="447.4,-60 441.77,-68.97 451.77,-65.47 447.4,-60"/>
<text text-anchor="middle" x="630.98" y="-10.23" font-family="Times New Roman,serif" font-size="14.00"> &#160;&#160;ε &#160;</text>
</g>
<!-- S9 -->
<g id="node12" class="node">
<title>S9</title>
<ellipse fill="none" stroke="black" cx="887.97" cy="-82.43" rx="20.6" ry="20.6"/>
<text text-anchor="middle" x="887.97" y="-78.73" font-family="Times New Roman,serif" font-size="14.00">S9</text>
</g>
<!-- S8&#45;&gt;S9 -->
<g id="edge13" class="edge">
<title>S8&#45;&gt;S9</title>
<path fill="none" stroke="black" d="M809.6,-82.43C823.3,-82.43 841.64,-82.43 857.02,-82.43"/>
<polygon fill="black" stroke="black" points="857.11,-85.93 867.11,-82.43 857.11,-78.93 857.11,-85.93"/>
<text text-anchor="middle" x="838.17" y="-86.23" font-family="Times New Roman,serif" font-size="14.00">ε &#160;&#160;&#160;</text>
</g>
<!-- S6 -->
<g id="node11" class="node">
<title>S6</title>
<ellipse fill="none" stroke="black" cx="703.78" cy="-49.43" rx="20.6" ry="20.6"/>
<text text-anchor="middle" x="703.78" y="-45.73" font-family="Times New Roman,serif" font-size="14.00">S6</text>
</g>
<!-- S5&#45;&gt;S6 -->
<g id="edge7" class="edge">
<title>S5&#45;&gt;S6</title>
<path fill="none" stroke="black" d="M579.15,-49.43C603.34,-49.43 644.34,-49.43 672.44,-49.43"/>
<polygon fill="black" stroke="black" points="672.52,-52.93 682.52,-49.43 672.52,-45.93 672.52,-52.93"/>
<text text-anchor="middle" x="630.98" y="-53.23" font-family="Times New Roman,serif" font-size="14.00">Transition c</text>
</g>
<!-- S6&#45;&gt;S8 -->
<g id="edge8" class="edge">
<title>S6&#45;&gt;S8</title>
<path fill="none" stroke="black" d="M723.52,-56.92C734.08,-61.14 747.48,-66.49 759.28,-71.21"/>
<polygon fill="black" stroke="black" points="758.12,-74.52 768.71,-74.98 760.72,-68.01 758.12,-74.52"/>
<text text-anchor="middle" x="746.08" y="-70.23" font-family="Times New Roman,serif" font-size="14.00">ε</text>
</g>
<!-- S9&#45;&gt;S10 -->
<g id="edge14" class="edge">
<title>S9&#45;&gt;S10</title>
<path fill="none" stroke="black" d="M908.96,-82.43C932.46,-82.43 971.98,-82.43 1001.39,-82.43"/>
<polygon fill="black" stroke="black" points="1001.72,-85.93 1011.72,-82.43 1001.72,-78.93 1001.72,-85.93"/>
<text text-anchor="middle" x="960.27" y="-86.23" font-family="Times New Roman,serif" font-size="14.00">Transition k</text>
</g>
</g>
</svg>
