<?xml version="1.0" encoding="UTF-8" standalone="no"?>
<!DOCTYPE svg PUBLIC "-//W3C//DTD SVG 1.1//EN"
 "http://www.w3.org/Graphics/SVG/1.1/DTD/svg11.dtd">
<!-- Generated by graphviz version 3.0.0 (20220226.1711)
 -->
<!-- Pages: 1 -->
<svg width="293pt" height="58pt"
 viewBox="0.00 0.00 293.19 57.60" xmlns="http://www.w3.org/2000/svg" xmlns:xlink="http://www.w3.org/1999/xlink">
<g id="graph0" class="graph" transform="scale(1 1) rotate(0) translate(4 53.6)">
<polygon fill="white" stroke="transparent" points="-4,4 -4,-53.6 289.19,-53.6 289.19,4 -4,4"/>
<!-- start -->
<g id="node1" class="node">
<title>start</title>
<text text-anchor="middle" x="27" y="-21.1" font-family="Times New Roman,serif" font-size="14.00">start</text>
</g>
<!-- S0 -->
<g id="node2" class="node">
<title>S0</title>
<ellipse fill="none" stroke="black" cx="111.8" cy="-24.8" rx="20.6" ry="20.6"/>
<text text-anchor="middle" x="111.8" y="-21.1" font-family="Times New Roman,serif" font-size="14.00">S0</text>
</g>
<!-- start&#45;&gt;S0 -->
<g id="edge1" class="edge">
<title>start&#45;&gt;S0</title>
<path fill="none" stroke="black" d="M54.2,-24.8C62.62,-24.8 72.01,-24.8 80.69,-24.8"/>
<polygon fill="black" stroke="black" points="80.81,-28.3 90.81,-24.8 80.81,-21.3 80.81,-28.3"/>
</g>
<!-- S1 -->
<g id="node3" class="node">
<title>S1</title>
<ellipse fill="none" stroke="black" cx="260.39" cy="-24.8" rx="20.63" ry="20.63"/>
<ellipse fill="none" stroke="black" cx="260.39" cy="-24.8" rx="24.6" ry="24.6"/>
<text text-anchor="middle" x="260.39" y="-21.1" font-family="Times New Roman,serif" font-size="14.00">S1</text>
</g>
<!-- S0&#45;&gt;S1 -->
<g id="edge2" class="edge">
<title>S0&#45;&gt;S1</title>
<path fill="none" stroke="black" d="M132.87,-24.8C156.59,-24.8 196.42,-24.8 225.06,-24.8"/>
<polygon fill="black" stroke="black" points="225.43,-28.3 235.43,-24.8 225.43,-21.3 225.43,-28.3"/>
<text text-anchor="middle" x="184.1" y="-28.6" font-family="Times New Roman,serif" font-size="14.00">Transition x</text>
</g>
</g>
</svg>
