<?xml version="1.0" encoding="UTF-8" standalone="no"?>
<!DOCTYPE svg PUBLIC "-//W3C//DTD SVG 1.1//EN"
 "http://www.w3.org/Graphics/SVG/1.1/DTD/svg11.dtd">
<!-- Generated by graphviz version 3.0.0 (20220226.1711)
 -->
<!-- Pages: 1 -->
<svg width="1198pt" height="303pt"
 viewBox="0.00 0.00 1197.76 302.80" xmlns="http://www.w3.org/2000/svg" xmlns:xlink="http://www.w3.org/1999/xlink">
<g id="graph0" class="graph" transform="scale(1 1) rotate(0) translate(4 298.8)">
<polygon fill="white" stroke="transparent" points="-4,4 -4,-298.8 1193.76,-298.8 1193.76,4 -4,4"/>
<!-- start -->
<g id="node1" class="node">
<title>start</title>
<text text-anchor="middle" x="27" y="-165.1" font-family="Times New Roman,serif" font-size="14.00">start</text>
</g>
<!-- S16 -->
<g id="node13" class="node">
<title>S16</title>
<ellipse fill="none" stroke="black" cx="115.7" cy="-168.8" rx="24.9" ry="24.9"/>
<text text-anchor="middle" x="115.7" y="-165.1" font-family="Times New Roman,serif" font-size="14.00">S16</text>
</g>
<!-- start&#45;&gt;S16 -->
<g id="edge12" class="edge">
<title>start&#45;&gt;S16</title>
<path fill="none" stroke="black" d="M54.01,-168.8C62.4,-168.8 71.83,-168.8 80.7,-168.8"/>
<polygon fill="black" stroke="black" points="80.78,-172.3 90.78,-168.8 80.78,-165.3 80.78,-172.3"/>
</g>
<!-- S0 -->
<g id="node2" class="node">
<title>S0</title>
<ellipse fill="none" stroke="black" cx="252.19" cy="-207.8" rx="20.6" ry="20.6"/>
<text text-anchor="middle" x="252.19" y="-204.1" font-family="Times New Roman,serif" font-size="14.00">S0</text>
</g>
<!-- S1 -->
<g id="node3" class="node">
<title>S1</title>
<ellipse fill="none" stroke="black" cx="340.69" cy="-216.8" rx="20.6" ry="20.6"/>
<text text-anchor="middle" x="340.69" y="-213.1" font-family="Times New Roman,serif" font-size="14.00">S1</text>
</g>
<!-- S0&#45;&gt;S1 -->
<g id="edge1" class="edge">
<title>S0&#45;&gt;S1</title>
<path fill="none" stroke="black" d="M273.26,-209.89C284.06,-211.01 297.61,-212.42 309.65,-213.67"/>
<polygon fill="black" stroke="black" points="309.43,-217.17 319.74,-214.72 310.15,-210.21 309.43,-217.17"/>
<text text-anchor="middle" x="294.49" y="-216.6" font-family="Times New Roman,serif" font-size="14.00">ε</text>
</g>
<!-- S2 -->
<g id="node4" class="node">
<title>S2</title>
<ellipse fill="none" stroke="black" cx="498.09" cy="-247.8" rx="20.6" ry="20.6"/>
<text text-anchor="middle" x="498.09" y="-244.1" font-family="Times New Roman,serif" font-size="14.00">S2</text>
</g>
<!-- S1&#45;&gt;S2 -->
<g id="edge2" class="edge">
<title>S1&#45;&gt;S2</title>
<path fill="none" stroke="black" d="M361.37,-220.72C388.23,-226.08 436.56,-235.72 467.72,-241.94"/>
<polygon fill="black" stroke="black" points="467.07,-245.38 477.56,-243.9 468.44,-238.52 467.07,-245.38"/>
<text text-anchor="middle" x="419.39" y="-242.6" font-family="Times New Roman,serif" font-size="14.00">Transition &amp;</text>
</g>
<!-- S3 -->
<g id="node15" class="node">
<title>S3</title>
<ellipse fill="none" stroke="black" cx="651.48" cy="-255.8" rx="20.6" ry="20.6"/>
<text text-anchor="middle" x="651.48" y="-252.1" font-family="Times New Roman,serif" font-size="14.00">S3</text>
</g>
<!-- S2&#45;&gt;S3 -->
<g id="edge15" class="edge">
<title>S2&#45;&gt;S3</title>
<path fill="none" stroke="black" d="M518.88,-248.84C544.72,-250.21 590.2,-252.61 620.34,-254.21"/>
<polygon fill="black" stroke="black" points="620.51,-257.72 630.68,-254.75 620.88,-250.73 620.51,-257.72"/>
<text text-anchor="middle" x="574.78" y="-257.6" font-family="Times New Roman,serif" font-size="14.00">Transition a</text>
</g>
<!-- S10 -->
<g id="node5" class="node">
<title>S10</title>
<ellipse fill="none" stroke="black" cx="498.09" cy="-83.8" rx="24.9" ry="24.9"/>
<text text-anchor="middle" x="498.09" y="-80.1" font-family="Times New Roman,serif" font-size="14.00">S10</text>
</g>
<!-- S11 -->
<g id="node6" class="node">
<title>S11</title>
<ellipse fill="none" stroke="black" cx="651.48" cy="-75.8" rx="24.9" ry="24.9"/>
<text text-anchor="middle" x="651.48" y="-72.1" font-family="Times New Roman,serif" font-size="14.00">S11</text>
</g>
<!-- S10&#45;&gt;S11 -->
<g id="edge3" class="edge">
<title>S10&#45;&gt;S11</title>
<path fill="none" stroke="black" d="M523.07,-82.53C548.21,-81.2 587.92,-79.1 616.33,-77.6"/>
<polygon fill="black" stroke="black" points="616.8,-81.08 626.6,-77.06 616.43,-74.09 616.8,-81.08"/>
<text text-anchor="middle" x="574.78" y="-85.6" font-family="Times New Roman,serif" font-size="14.00">Transition b</text>
</g>
<!-- S12 -->
<g id="node7" class="node">
<title>S12</title>
<ellipse fill="none" stroke="black" cx="804.88" cy="-83.8" rx="24.9" ry="24.9"/>
<text text-anchor="middle" x="804.88" y="-80.1" font-family="Times New Roman,serif" font-size="14.00">S12</text>
</g>
<!-- S11&#45;&gt;S12 -->
<g id="edge4" class="edge">
<title>S11&#45;&gt;S12</title>
<path fill="none" stroke="black" d="M676.47,-77.07C701.61,-78.39 741.32,-80.49 769.72,-81.99"/>
<polygon fill="black" stroke="black" points="769.83,-85.5 780,-82.54 770.2,-78.51 769.83,-85.5"/>
<text text-anchor="middle" x="728.18" y="-85.6" font-family="Times New Roman,serif" font-size="14.00">Transition b</text>
</g>
<!-- S14 -->
<g id="node8" class="node">
<title>S14</title>
<ellipse fill="none" stroke="black" cx="912.27" cy="-136.8" rx="24.9" ry="24.9"/>
<text text-anchor="middle" x="912.27" y="-133.1" font-family="Times New Roman,serif" font-size="14.00">S14</text>
</g>
<!-- S12&#45;&gt;S14 -->
<g id="edge5" class="edge">
<title>S12&#45;&gt;S14</title>
<path fill="none" stroke="black" d="M828.57,-90.82C841.01,-95.04 856.5,-100.92 869.57,-107.8 874.24,-110.25 878.99,-113.13 883.54,-116.12"/>
<polygon fill="black" stroke="black" points="881.74,-119.13 891.97,-121.89 885.7,-113.35 881.74,-119.13"/>
<text text-anchor="middle" x="858.57" y="-111.6" font-family="Times New Roman,serif" font-size="14.00">ε</text>
</g>
<!-- S13 -->
<g id="node9" class="node">
<title>S13</title>
<ellipse fill="none" stroke="black" cx="340.69" cy="-136.8" rx="24.9" ry="24.9"/>
<text text-anchor="middle" x="340.69" y="-133.1" font-family="Times New Roman,serif" font-size="14.00">S13</text>
</g>
<!-- S14&#45;&gt;S13 -->
<g id="edge9" class="edge">
<title>S14&#45;&gt;S13</title>
<path fill="none" stroke="black" d="M887.41,-136.8C866.05,-136.8 833.87,-136.8 805.88,-136.8 497.09,-136.8 497.09,-136.8 497.09,-136.8 455.27,-136.8 407.13,-136.8 375.65,-136.8"/>
<polygon fill="black" stroke="black" points="375.65,-133.3 365.65,-136.8 375.65,-140.3 375.65,-133.3"/>
<text text-anchor="middle" x="651.48" y="-140.6" font-family="Times New Roman,serif" font-size="14.00"> &#160;&#160;ε &#160;</text>
</g>
<!-- S15 -->
<g id="node11" class="node">
<title>S15</title>
<ellipse fill="none" stroke="black" cx="1064.67" cy="-151.8" rx="24.9" ry="24.9"/>
<text text-anchor="middle" x="1064.67" y="-148.1" font-family="Times New Roman,serif" font-size="14.00">S15</text>
</g>
<!-- S14&#45;&gt;S15 -->
<g id="edge10" class="edge">
<title>S14&#45;&gt;S15</title>
<path fill="none" stroke="black" d="M937.1,-139.17C962.07,-141.67 1001.52,-145.6 1029.74,-148.41"/>
<polygon fill="black" stroke="black" points="1029.65,-151.92 1039.95,-149.43 1030.35,-144.96 1029.65,-151.92"/>
<text text-anchor="middle" x="988.47" y="-151.6" font-family="Times New Roman,serif" font-size="14.00">ε &#160;&#160;&#160;</text>
</g>
<!-- S13&#45;&gt;S10 -->
<g id="edge7" class="edge">
<title>S13&#45;&gt;S10</title>
<path fill="none" stroke="black" d="M360.25,-121.51C367.16,-116.49 375.29,-111.3 383.39,-107.8 408.92,-96.76 439.93,-90.65 463.12,-87.36"/>
<polygon fill="black" stroke="black" points="463.71,-90.82 473.17,-86.04 462.8,-83.88 463.71,-90.82"/>
<text text-anchor="middle" x="419.39" y="-111.6" font-family="Times New Roman,serif" font-size="14.00"> &#160;&#160;&#160;&#160;&#160;ε &#160;&#160;&#160;&#160;&#160;&#160;</text>
</g>
<!-- S13&#45;&gt;S14 -->
<g id="edge8" class="edge">
<title>S13&#45;&gt;S14</title>
<path fill="none" stroke="black" d="M362.59,-148.37C391.78,-163.42 446.83,-187.8 497.09,-187.8 497.09,-187.8 497.09,-187.8 805.88,-187.8 834.87,-187.8 864.27,-171.97 884.63,-157.95"/>
<polygon fill="black" stroke="black" points="886.69,-160.78 892.77,-152.1 882.6,-155.09 886.69,-160.78"/>
<text text-anchor="middle" x="651.48" y="-191.6" font-family="Times New Roman,serif" font-size="14.00">ε &#160;&#160;&#160;&#160;</text>
</g>
<!-- S8 -->
<g id="node10" class="node">
<title>S8</title>
<ellipse fill="none" stroke="black" cx="498.09" cy="-20.8" rx="20.6" ry="20.6"/>
<text text-anchor="middle" x="498.09" y="-17.1" font-family="Times New Roman,serif" font-size="14.00">S8</text>
</g>
<!-- S13&#45;&gt;S8 -->
<g id="edge6" class="edge">
<title>S13&#45;&gt;S8</title>
<path fill="none" stroke="black" d="M351.28,-114.45C358.38,-100.1 369.26,-81.95 383.39,-69.8 407.91,-48.7 442.89,-35.47 467.57,-28.15"/>
<polygon fill="black" stroke="black" points="468.77,-31.45 477.45,-25.37 466.87,-24.71 468.77,-31.45"/>
<text text-anchor="middle" x="419.39" y="-73.6" font-family="Times New Roman,serif" font-size="14.00"> &#160;&#160;&#160;&#160;ε &#160;&#160;&#160;&#160;</text>
</g>
<!-- S9 -->
<g id="node19" class="node">
<title>S9</title>
<ellipse fill="none" stroke="black" cx="728.18" cy="-23.8" rx="20.6" ry="20.6"/>
<text text-anchor="middle" x="728.18" y="-20.1" font-family="Times New Roman,serif" font-size="14.00">S9</text>
</g>
<!-- S8&#45;&gt;S9 -->
<g id="edge23" class="edge">
<title>S8&#45;&gt;S9</title>
<path fill="none" stroke="black" d="M518.93,-21.06C558.95,-21.59 649.55,-22.78 696.97,-23.4"/>
<polygon fill="black" stroke="black" points="697.17,-26.9 707.22,-23.54 697.27,-19.9 697.17,-26.9"/>
<text text-anchor="middle" x="574.78" y="-26.6" font-family="Times New Roman,serif" font-size="14.00">Transition a</text>
</g>
<!-- S17 -->
<g id="node12" class="node">
<title>S17</title>
<ellipse fill="none" stroke="black" cx="1161.06" cy="-182.8" rx="24.87" ry="24.87"/>
<ellipse fill="none" stroke="black" cx="1161.06" cy="-182.8" rx="28.9" ry="28.9"/>
<text text-anchor="middle" x="1161.06" y="-179.1" font-family="Times New Roman,serif" font-size="14.00">S17</text>
</g>
<!-- S15&#45;&gt;S17 -->
<g id="edge11" class="edge">
<title>S15&#45;&gt;S17</title>
<path fill="none" stroke="black" d="M1088.52,-159.3C1099.09,-162.77 1111.91,-166.98 1123.75,-170.87"/>
<polygon fill="black" stroke="black" points="1122.81,-174.25 1133.41,-174.04 1125,-167.6 1122.81,-174.25"/>
<text text-anchor="middle" x="1110.87" y="-171.6" font-family="Times New Roman,serif" font-size="14.00">ε</text>
</g>
<!-- S16&#45;&gt;S0 -->
<g id="edge13" class="edge">
<title>S16&#45;&gt;S0</title>
<path fill="none" stroke="black" d="M139.51,-175.41C162.2,-181.99 197.11,-192.11 221.85,-199.29"/>
<polygon fill="black" stroke="black" points="221.19,-202.74 231.76,-202.16 223.14,-196.02 221.19,-202.74"/>
<text text-anchor="middle" x="185.9" y="-200.6" font-family="Times New Roman,serif" font-size="14.00"> &#160;&#160;&#160;&#160;ε &#160;&#160;&#160;&#160;</text>
</g>
<!-- S7 -->
<g id="node14" class="node">
<title>S7</title>
<ellipse fill="none" stroke="black" cx="252.19" cy="-138.8" rx="20.6" ry="20.6"/>
<text text-anchor="middle" x="252.19" y="-135.1" font-family="Times New Roman,serif" font-size="14.00">S7</text>
</g>
<!-- S16&#45;&gt;S7 -->
<g id="edge14" class="edge">
<title>S16&#45;&gt;S7</title>
<path fill="none" stroke="black" d="M139.5,-161.14C145.6,-159.25 152.21,-157.32 158.4,-155.8 179.27,-150.65 203.13,-146.32 221.43,-143.31"/>
<polygon fill="black" stroke="black" points="222.17,-146.73 231.5,-141.7 221.07,-139.82 222.17,-146.73"/>
<text text-anchor="middle" x="185.9" y="-159.6" font-family="Times New Roman,serif" font-size="14.00"> &#160;&#160;&#160;&#160;&#160;ε &#160;&#160;&#160;&#160;&#160;&#160;</text>
</g>
<!-- S7&#45;&gt;S13 -->
<g id="edge22" class="edge">
<title>S7&#45;&gt;S13</title>
<path fill="none" stroke="black" d="M273.26,-138.33C282.86,-138.11 294.63,-137.84 305.59,-137.59"/>
<polygon fill="black" stroke="black" points="305.82,-141.08 315.74,-137.35 305.66,-134.08 305.82,-141.08"/>
<text text-anchor="middle" x="294.49" y="-142.6" font-family="Times New Roman,serif" font-size="14.00">ε</text>
</g>
<!-- S4 -->
<g id="node16" class="node">
<title>S4</title>
<ellipse fill="none" stroke="black" cx="804.88" cy="-249.8" rx="20.6" ry="20.6"/>
<text text-anchor="middle" x="804.88" y="-246.1" font-family="Times New Roman,serif" font-size="14.00">S4</text>
</g>
<!-- S3&#45;&gt;S4 -->
<g id="edge16" class="edge">
<title>S3&#45;&gt;S4</title>
<path fill="none" stroke="black" d="M670.16,-265.88C677.37,-269.44 685.94,-273.01 694.18,-274.8 723.71,-281.21 733.05,-282.86 762.18,-274.8 768.02,-273.18 773.86,-270.51 779.24,-267.5"/>
<polygon fill="black" stroke="black" points="781.11,-270.46 787.79,-262.24 777.44,-264.5 781.11,-270.46"/>
<text text-anchor="middle" x="728.18" y="-283.6" font-family="Times New Roman,serif" font-size="14.00">Transition b</text>
</g>
<!-- S3&#45;&gt;S4 -->
<g id="edge17" class="edge">
<title>S3&#45;&gt;S4</title>
<path fill="none" stroke="black" d="M672.27,-255.01C698.11,-253.99 743.59,-252.19 773.73,-250.99"/>
<polygon fill="black" stroke="black" points="774.23,-254.48 784.08,-250.58 773.95,-247.48 774.23,-254.48"/>
<text text-anchor="middle" x="728.18" y="-258.6" font-family="Times New Roman,serif" font-size="14.00">ε &#160;&#160;&#160;&#160;</text>
</g>
<!-- S4&#45;&gt;S3 -->
<g id="edge18" class="edge">
<title>S4&#45;&gt;S3</title>
<path fill="none" stroke="black" d="M786.08,-240.77C778.86,-237.58 770.31,-234.39 762.18,-232.8 732.52,-226.98 723.45,-225.26 694.18,-232.8 688.67,-234.22 683.12,-236.53 677.94,-239.16"/>
<polygon fill="black" stroke="black" points="676.12,-236.16 669.11,-244.1 679.54,-242.27 676.12,-236.16"/>
<text text-anchor="middle" x="728.18" y="-236.6" font-family="Times New Roman,serif" font-size="14.00"> &#160;&#160;ε &#160;</text>
</g>
<!-- S5 -->
<g id="node17" class="node">
<title>S5</title>
<ellipse fill="none" stroke="black" cx="912.27" cy="-228.8" rx="20.6" ry="20.6"/>
<text text-anchor="middle" x="912.27" y="-225.1" font-family="Times New Roman,serif" font-size="14.00">S5</text>
</g>
<!-- S4&#45;&gt;S5 -->
<g id="edge19" class="edge">
<title>S4&#45;&gt;S5</title>
<path fill="none" stroke="black" d="M825.7,-245.85C841.45,-242.71 863.73,-238.27 881.6,-234.71"/>
<polygon fill="black" stroke="black" points="882.41,-238.12 891.54,-232.73 881.05,-231.25 882.41,-238.12"/>
<text text-anchor="middle" x="858.57" y="-245.6" font-family="Times New Roman,serif" font-size="14.00">ε &#160;&#160;&#160;</text>
</g>
<!-- S6 -->
<g id="node18" class="node">
<title>S6</title>
<ellipse fill="none" stroke="black" cx="1064.67" cy="-217.8" rx="20.6" ry="20.6"/>
<text text-anchor="middle" x="1064.67" y="-214.1" font-family="Times New Roman,serif" font-size="14.00">S6</text>
</g>
<!-- S5&#45;&gt;S6 -->
<g id="edge20" class="edge">
<title>S5&#45;&gt;S6</title>
<path fill="none" stroke="black" d="M933.24,-227.34C958.86,-225.46 1003.54,-222.2 1033.36,-220.01"/>
<polygon fill="black" stroke="black" points="1033.9,-223.49 1043.61,-219.26 1033.39,-216.5 1033.9,-223.49"/>
<text text-anchor="middle" x="988.47" y="-229.6" font-family="Times New Roman,serif" font-size="14.00">Transition a</text>
</g>
<!-- S6&#45;&gt;S17 -->
<g id="edge21" class="edge">
<title>S6&#45;&gt;S17</title>
<path fill="none" stroke="black" d="M1084.32,-210.88C1095.73,-206.65 1110.71,-201.1 1124.34,-196.04"/>
<polygon fill="black" stroke="black" points="1125.79,-199.24 1133.95,-192.48 1123.36,-192.68 1125.79,-199.24"/>
<text text-anchor="middle" x="1110.87" y="-205.6" font-family="Times New Roman,serif" font-size="14.00">ε</text>
</g>
<!-- S9&#45;&gt;S14 -->
<g id="edge24" class="edge">
<title>S9&#45;&gt;S14</title>
<path fill="none" stroke="black" d="M748.99,-21.68C770.26,-20.33 804.37,-20.95 829.57,-34.8 858.89,-50.9 881.54,-82.29 895.47,-106.01"/>
<polygon fill="black" stroke="black" points="892.59,-108.02 900.56,-115 898.68,-104.57 892.59,-108.02"/>
<text text-anchor="middle" x="804.88" y="-38.6" font-family="Times New Roman,serif" font-size="14.00">ε</text>
</g>
</g>
</svg>
