<?xml version="1.0" encoding="UTF-8" standalone="no"?>
<!DOCTYPE svg PUBLIC "-//W3C//DTD SVG 1.1//EN"
 "http://www.w3.org/Graphics/SVG/1.1/DTD/svg11.dtd">
<!-- Generated by graphviz version 3.0.0 (20220226.1711)
 -->
<!-- Pages: 1 -->
<svg width="1164pt" height="58pt"
 viewBox="0.00 0.00 1163.77 57.60" xmlns="http://www.w3.org/2000/svg" xmlns:xlink="http://www.w3.org/1999/xlink">
<g id="graph0" class="graph" transform="scale(1 1) rotate(0) translate(4 53.6)">
<polygon fill="white" stroke="transparent" points="-4,4 -4,-53.6 1159.77,-53.6 1159.77,4 -4,4"/>
<!-- start -->
<g id="node1" class="node">
<title>start</title>
<text text-anchor="middle" x="27" y="-21.1" font-family="Times New Roman,serif" font-size="14.00">start</text>
</g>
<!-- S0 -->
<g id="node2" class="node">
<title>S0</title>
<ellipse fill="none" stroke="black" cx="111.8" cy="-24.8" rx="20.6" ry="20.6"/>
<text text-anchor="middle" x="111.8" y="-21.1" font-family="Times New Roman,serif" font-size="14.00">S0</text>
</g>
<!-- start&#45;&gt;S0 -->
<g id="edge1" class="edge">
<title>start&#45;&gt;S0</title>
<path fill="none" stroke="black" d="M54.2,-24.8C62.62,-24.8 72.01,-24.8 80.69,-24.8"/>
<polygon fill="black" stroke="black" points="80.81,-28.3 90.81,-24.8 80.81,-21.3 80.81,-28.3"/>
</g>
<!-- S1 -->
<g id="node3" class="node">
<title>S1</title>
<ellipse fill="none" stroke="black" cx="257.39" cy="-24.8" rx="20.6" ry="20.6"/>
<text text-anchor="middle" x="257.39" y="-21.1" font-family="Times New Roman,serif" font-size="14.00">S1</text>
</g>
<!-- S0&#45;&gt;S1 -->
<g id="edge2" class="edge">
<title>S0&#45;&gt;S1</title>
<path fill="none" stroke="black" d="M132.76,-24.8C156.95,-24.8 197.95,-24.8 226.06,-24.8"/>
<polygon fill="black" stroke="black" points="226.13,-28.3 236.13,-24.8 226.13,-21.3 226.13,-28.3"/>
<text text-anchor="middle" x="184.6" y="-28.6" font-family="Times New Roman,serif" font-size="14.00">Transition b</text>
</g>
<!-- S2 -->
<g id="node4" class="node">
<title>S2</title>
<ellipse fill="none" stroke="black" cx="401.99" cy="-24.8" rx="20.6" ry="20.6"/>
<text text-anchor="middle" x="401.99" y="-21.1" font-family="Times New Roman,serif" font-size="14.00">S2</text>
</g>
<!-- S1&#45;&gt;S2 -->
<g id="edge3" class="edge">
<title>S1&#45;&gt;S2</title>
<path fill="none" stroke="black" d="M278.22,-24.8C302.24,-24.8 342.96,-24.8 370.86,-24.8"/>
<polygon fill="black" stroke="black" points="370.87,-28.3 380.87,-24.8 370.87,-21.3 370.87,-28.3"/>
<text text-anchor="middle" x="329.69" y="-28.6" font-family="Times New Roman,serif" font-size="14.00">Transition h</text>
</g>
<!-- S3 -->
<g id="node5" class="node">
<title>S3</title>
<ellipse fill="none" stroke="black" cx="546.59" cy="-24.8" rx="20.6" ry="20.6"/>
<text text-anchor="middle" x="546.59" y="-21.1" font-family="Times New Roman,serif" font-size="14.00">S3</text>
</g>
<!-- S2&#45;&gt;S3 -->
<g id="edge4" class="edge">
<title>S2&#45;&gt;S3</title>
<path fill="none" stroke="black" d="M422.82,-24.8C446.84,-24.8 487.55,-24.8 515.46,-24.8"/>
<polygon fill="black" stroke="black" points="515.47,-28.3 525.47,-24.8 515.47,-21.3 515.47,-28.3"/>
<text text-anchor="middle" x="474.29" y="-28.6" font-family="Times New Roman,serif" font-size="14.00">Transition v</text>
</g>
<!-- S4 -->
<g id="node6" class="node">
<title>S4</title>
<ellipse fill="none" stroke="black" cx="692.18" cy="-24.8" rx="20.6" ry="20.6"/>
<text text-anchor="middle" x="692.18" y="-21.1" font-family="Times New Roman,serif" font-size="14.00">S4</text>
</g>
<!-- S3&#45;&gt;S4 -->
<g id="edge5" class="edge">
<title>S3&#45;&gt;S4</title>
<path fill="none" stroke="black" d="M567.55,-24.8C591.74,-24.8 632.74,-24.8 660.85,-24.8"/>
<polygon fill="black" stroke="black" points="660.92,-28.3 670.92,-24.8 660.92,-21.3 660.92,-28.3"/>
<text text-anchor="middle" x="619.39" y="-28.6" font-family="Times New Roman,serif" font-size="14.00">Transition d</text>
</g>
<!-- S5 -->
<g id="node7" class="node">
<title>S5</title>
<ellipse fill="none" stroke="black" cx="836.78" cy="-24.8" rx="20.6" ry="20.6"/>
<text text-anchor="middle" x="836.78" y="-21.1" font-family="Times New Roman,serif" font-size="14.00">S5</text>
</g>
<!-- S4&#45;&gt;S5 -->
<g id="edge6" class="edge">
<title>S4&#45;&gt;S5</title>
<path fill="none" stroke="black" d="M713.01,-24.8C737.03,-24.8 777.74,-24.8 805.65,-24.8"/>
<polygon fill="black" stroke="black" points="805.66,-28.3 815.66,-24.8 805.66,-21.3 805.66,-28.3"/>
<text text-anchor="middle" x="764.48" y="-28.6" font-family="Times New Roman,serif" font-size="14.00">Transition e</text>
</g>
<!-- S6 -->
<g id="node8" class="node">
<title>S6</title>
<ellipse fill="none" stroke="black" cx="981.38" cy="-24.8" rx="20.6" ry="20.6"/>
<text text-anchor="middle" x="981.38" y="-21.1" font-family="Times New Roman,serif" font-size="14.00">S6</text>
</g>
<!-- S5&#45;&gt;S6 -->
<g id="edge7" class="edge">
<title>S5&#45;&gt;S6</title>
<path fill="none" stroke="black" d="M857.61,-24.8C881.63,-24.8 922.34,-24.8 950.25,-24.8"/>
<polygon fill="black" stroke="black" points="950.26,-28.3 960.26,-24.8 950.26,-21.3 950.26,-28.3"/>
<text text-anchor="middle" x="909.08" y="-28.6" font-family="Times New Roman,serif" font-size="14.00">Transition a</text>
</g>
<!-- S7 -->
<g id="node9" class="node">
<title>S7</title>
<ellipse fill="none" stroke="black" cx="1130.97" cy="-24.8" rx="20.63" ry="20.63"/>
<ellipse fill="none" stroke="black" cx="1130.97" cy="-24.8" rx="24.6" ry="24.6"/>
<text text-anchor="middle" x="1130.97" y="-21.1" font-family="Times New Roman,serif" font-size="14.00">S7</text>
</g>
<!-- S6&#45;&gt;S7 -->
<g id="edge8" class="edge">
<title>S6&#45;&gt;S7</title>
<path fill="none" stroke="black" d="M1002.28,-24.8C1026.25,-24.8 1066.89,-24.8 1095.89,-24.8"/>
<polygon fill="black" stroke="black" points="1095.99,-28.3 1105.99,-24.8 1095.99,-21.3 1095.99,-28.3"/>
<text text-anchor="middle" x="1054.17" y="-28.6" font-family="Times New Roman,serif" font-size="14.00">Transition d</text>
</g>
</g>
</svg>
