<?xml version="1.0" encoding="UTF-8" standalone="no"?>
<!DOCTYPE svg PUBLIC "-//W3C//DTD SVG 1.1//EN"
 "http://www.w3.org/Graphics/SVG/1.1/DTD/svg11.dtd">
<!-- Generated by graphviz version 3.0.0 (20220226.1711)
 -->
<!-- Pages: 1 -->
<svg width="1541pt" height="392pt"
 viewBox="0.00 0.00 1540.54 392.40" xmlns="http://www.w3.org/2000/svg" xmlns:xlink="http://www.w3.org/1999/xlink">
<g id="graph0" class="graph" transform="scale(1 1) rotate(0) translate(4 388.4)">
<polygon fill="white" stroke="transparent" points="-4,4 -4,-388.4 1536.54,-388.4 1536.54,4 -4,4"/>
<!-- start -->
<g id="node1" class="node">
<title>start</title>
<text text-anchor="middle" x="27" y="-96" font-family="Times New Roman,serif" font-size="14.00">start</text>
</g>
<!-- S20 -->
<g id="node18" class="node">
<title>S20</title>
<ellipse fill="none" stroke="black" cx="115.7" cy="-99.7" rx="24.9" ry="24.9"/>
<text text-anchor="middle" x="115.7" y="-96" font-family="Times New Roman,serif" font-size="14.00">S20</text>
</g>
<!-- start&#45;&gt;S20 -->
<g id="edge18" class="edge">
<title>start&#45;&gt;S20</title>
<path fill="none" stroke="black" d="M54.01,-99.7C62.4,-99.7 71.83,-99.7 80.7,-99.7"/>
<polygon fill="black" stroke="black" points="80.78,-103.2 90.78,-99.7 80.78,-96.2 80.78,-103.2"/>
</g>
<!-- S0 -->
<g id="node2" class="node">
<title>S0</title>
<ellipse fill="none" stroke="black" cx="256.09" cy="-132.7" rx="20.6" ry="20.6"/>
<text text-anchor="middle" x="256.09" y="-129" font-family="Times New Roman,serif" font-size="14.00">S0</text>
</g>
<!-- S1 -->
<g id="node3" class="node">
<title>S1</title>
<ellipse fill="none" stroke="black" cx="404.59" cy="-134.7" rx="20.6" ry="20.6"/>
<text text-anchor="middle" x="404.59" y="-131" font-family="Times New Roman,serif" font-size="14.00">S1</text>
</g>
<!-- S0&#45;&gt;S1 -->
<g id="edge1" class="edge">
<title>S0&#45;&gt;S1</title>
<path fill="none" stroke="black" d="M277.16,-132.97C302.03,-133.31 344.66,-133.89 373.47,-134.29"/>
<polygon fill="black" stroke="black" points="373.72,-137.79 383.77,-134.43 373.82,-130.79 373.72,-137.79"/>
<text text-anchor="middle" x="332.29" y="-138.5" font-family="Times New Roman,serif" font-size="14.00">ε</text>
</g>
<!-- S15 -->
<g id="node4" class="node">
<title>S15</title>
<ellipse fill="none" stroke="black" cx="535.48" cy="-156.7" rx="24.9" ry="24.9"/>
<text text-anchor="middle" x="535.48" y="-153" font-family="Times New Roman,serif" font-size="14.00">S15</text>
</g>
<!-- S1&#45;&gt;S15 -->
<g id="edge2" class="edge">
<title>S1&#45;&gt;S15</title>
<path fill="none" stroke="black" d="M425.17,-138.04C445.16,-141.45 476.61,-146.82 500.65,-150.92"/>
<polygon fill="black" stroke="black" points="500.33,-154.42 510.77,-152.65 501.5,-147.52 500.33,-154.42"/>
<text text-anchor="middle" x="468.09" y="-153.5" font-family="Times New Roman,serif" font-size="14.00">ε</text>
</g>
<!-- S13 -->
<g id="node9" class="node">
<title>S13</title>
<ellipse fill="none" stroke="black" cx="675.88" cy="-292.7" rx="24.9" ry="24.9"/>
<text text-anchor="middle" x="675.88" y="-289" font-family="Times New Roman,serif" font-size="14.00">S13</text>
</g>
<!-- S15&#45;&gt;S13 -->
<g id="edge10" class="edge">
<title>S15&#45;&gt;S13</title>
<path fill="none" stroke="black" d="M542.21,-180.57C548.18,-200.94 559.34,-229.84 578.18,-248.7 595.65,-266.2 621.34,-277.43 641.85,-284.17"/>
<polygon fill="black" stroke="black" points="640.86,-287.53 651.45,-287.12 642.92,-280.83 640.86,-287.53"/>
<text text-anchor="middle" x="605.68" y="-284.5" font-family="Times New Roman,serif" font-size="14.00"> &#160;&#160;&#160;&#160;&#160;ε &#160;&#160;&#160;&#160;&#160;&#160;</text>
</g>
<!-- S16 -->
<g id="node11" class="node">
<title>S16</title>
<ellipse fill="none" stroke="black" cx="1300.06" cy="-146.7" rx="24.9" ry="24.9"/>
<text text-anchor="middle" x="1300.06" y="-143" font-family="Times New Roman,serif" font-size="14.00">S16</text>
</g>
<!-- S15&#45;&gt;S16 -->
<g id="edge11" class="edge">
<title>S15&#45;&gt;S16</title>
<path fill="none" stroke="black" d="M553.52,-174.01C578.05,-196.99 625.78,-234.7 674.88,-234.7 674.88,-234.7 674.88,-234.7 1212.56,-234.7 1245.38,-234.7 1269.89,-203.19 1284.29,-177.88"/>
<polygon fill="black" stroke="black" points="1287.46,-179.37 1289.13,-168.9 1281.3,-176.04 1287.46,-179.37"/>
<text text-anchor="middle" x="969.67" y="-238.5" font-family="Times New Roman,serif" font-size="14.00">ε &#160;&#160;&#160;&#160;</text>
</g>
<!-- S2 -->
<g id="node12" class="node">
<title>S2</title>
<ellipse fill="none" stroke="black" cx="675.88" cy="-156.7" rx="20.6" ry="20.6"/>
<text text-anchor="middle" x="675.88" y="-153" font-family="Times New Roman,serif" font-size="14.00">S2</text>
</g>
<!-- S15&#45;&gt;S2 -->
<g id="edge9" class="edge">
<title>S15&#45;&gt;S2</title>
<path fill="none" stroke="black" d="M560.27,-156.7C583.67,-156.7 619.47,-156.7 644.82,-156.7"/>
<polygon fill="black" stroke="black" points="644.98,-160.2 654.98,-156.7 644.98,-153.2 644.98,-160.2"/>
<text text-anchor="middle" x="605.68" y="-160.5" font-family="Times New Roman,serif" font-size="14.00"> &#160;&#160;&#160;&#160;ε &#160;&#160;&#160;&#160;</text>
</g>
<!-- S10 -->
<g id="node5" class="node">
<title>S10</title>
<ellipse fill="none" stroke="black" cx="969.67" cy="-292.7" rx="24.9" ry="24.9"/>
<text text-anchor="middle" x="969.67" y="-289" font-family="Times New Roman,serif" font-size="14.00">S10</text>
</g>
<!-- S14 -->
<g id="node6" class="node">
<title>S14</title>
<ellipse fill="none" stroke="black" cx="1123.06" cy="-292.7" rx="24.9" ry="24.9"/>
<text text-anchor="middle" x="1123.06" y="-289" font-family="Times New Roman,serif" font-size="14.00">S14</text>
</g>
<!-- S10&#45;&gt;S14 -->
<g id="edge3" class="edge">
<title>S10&#45;&gt;S14</title>
<path fill="none" stroke="black" d="M994.66,-292.7C1019.79,-292.7 1059.5,-292.7 1087.91,-292.7"/>
<polygon fill="black" stroke="black" points="1088.19,-296.2 1098.19,-292.7 1088.19,-289.2 1088.19,-296.2"/>
<text text-anchor="middle" x="1046.37" y="-296.5" font-family="Times New Roman,serif" font-size="14.00">ε</text>
</g>
<!-- S14&#45;&gt;S16 -->
<g id="edge8" class="edge">
<title>S14&#45;&gt;S16</title>
<path fill="none" stroke="black" d="M1147.8,-290.83C1177.07,-287.33 1226.71,-277.29 1257.36,-248.7 1276.44,-230.9 1287.02,-203.11 1292.75,-181.03"/>
<polygon fill="black" stroke="black" points="1296.22,-181.57 1295.12,-171.03 1289.41,-179.95 1296.22,-181.57"/>
<text text-anchor="middle" x="1211.56" y="-286.5" font-family="Times New Roman,serif" font-size="14.00">ε</text>
</g>
<!-- S11 -->
<g id="node7" class="node">
<title>S11</title>
<ellipse fill="none" stroke="black" cx="816.27" cy="-357.7" rx="24.9" ry="24.9"/>
<text text-anchor="middle" x="816.27" y="-354" font-family="Times New Roman,serif" font-size="14.00">S11</text>
</g>
<!-- S12 -->
<g id="node8" class="node">
<title>S12</title>
<ellipse fill="none" stroke="black" cx="969.67" cy="-359.7" rx="24.9" ry="24.9"/>
<text text-anchor="middle" x="969.67" y="-356" font-family="Times New Roman,serif" font-size="14.00">S12</text>
</g>
<!-- S11&#45;&gt;S12 -->
<g id="edge4" class="edge">
<title>S11&#45;&gt;S12</title>
<path fill="none" stroke="black" d="M841.26,-358.01C866.4,-358.35 906.11,-358.87 934.51,-359.25"/>
<polygon fill="black" stroke="black" points="934.75,-362.75 944.79,-359.38 934.84,-355.75 934.75,-362.75"/>
<text text-anchor="middle" x="892.97" y="-362.5" font-family="Times New Roman,serif" font-size="14.00">Transition d</text>
</g>
<!-- S12&#45;&gt;S14 -->
<g id="edge5" class="edge">
<title>S12&#45;&gt;S14</title>
<path fill="none" stroke="black" d="M992.56,-350.23C1014.74,-340.62 1050,-325.26 1080.37,-311.7 1083.76,-310.18 1087.31,-308.59 1090.84,-306.99"/>
<polygon fill="black" stroke="black" points="1092.36,-310.14 1100.02,-302.82 1089.47,-303.77 1092.36,-310.14"/>
<text text-anchor="middle" x="1046.37" y="-344.5" font-family="Times New Roman,serif" font-size="14.00">ε</text>
</g>
<!-- S13&#45;&gt;S11 -->
<g id="edge7" class="edge">
<title>S13&#45;&gt;S11</title>
<path fill="none" stroke="black" d="M698.5,-302.85C721.52,-313.67 758.16,-330.87 784.25,-343.13"/>
<polygon fill="black" stroke="black" points="782.8,-346.32 793.34,-347.4 785.78,-339.98 782.8,-346.32"/>
<text text-anchor="middle" x="746.07" y="-339.5" font-family="Times New Roman,serif" font-size="14.00"> &#160;&#160;&#160;&#160;&#160;ε &#160;&#160;&#160;&#160;&#160;&#160;</text>
</g>
<!-- S9 -->
<g id="node10" class="node">
<title>S9</title>
<ellipse fill="none" stroke="black" cx="816.27" cy="-292.7" rx="20.6" ry="20.6"/>
<text text-anchor="middle" x="816.27" y="-289" font-family="Times New Roman,serif" font-size="14.00">S9</text>
</g>
<!-- S13&#45;&gt;S9 -->
<g id="edge6" class="edge">
<title>S13&#45;&gt;S9</title>
<path fill="none" stroke="black" d="M700.67,-292.7C724.07,-292.7 759.86,-292.7 785.22,-292.7"/>
<polygon fill="black" stroke="black" points="785.38,-296.2 795.38,-292.7 785.38,-289.2 785.38,-296.2"/>
<text text-anchor="middle" x="746.07" y="-296.5" font-family="Times New Roman,serif" font-size="14.00"> &#160;&#160;&#160;&#160;ε &#160;&#160;&#160;&#160;</text>
</g>
<!-- S9&#45;&gt;S10 -->
<g id="edge28" class="edge">
<title>S9&#45;&gt;S10</title>
<path fill="none" stroke="black" d="M837.38,-292.7C862.2,-292.7 904.8,-292.7 934.73,-292.7"/>
<polygon fill="black" stroke="black" points="934.73,-296.2 944.73,-292.7 934.73,-289.2 934.73,-296.2"/>
<text text-anchor="middle" x="892.97" y="-296.5" font-family="Times New Roman,serif" font-size="14.00">Transition c</text>
</g>
<!-- S16&#45;&gt;S15 -->
<g id="edge12" class="edge">
<title>S16&#45;&gt;S15</title>
<path fill="none" stroke="black" d="M1288.31,-124.89C1274.47,-100.3 1247.94,-63.7 1212.56,-63.7 674.88,-63.7 674.88,-63.7 674.88,-63.7 627.19,-63.7 583.57,-102.21 558.52,-129.67"/>
<polygon fill="black" stroke="black" points="555.66,-127.62 551.67,-137.43 560.91,-132.25 555.66,-127.62"/>
<text text-anchor="middle" x="969.67" y="-67.5" font-family="Times New Roman,serif" font-size="14.00"> &#160;&#160;ε &#160;</text>
</g>
<!-- S17 -->
<g id="node13" class="node">
<title>S17</title>
<ellipse fill="none" stroke="black" cx="1407.45" cy="-93.7" rx="24.9" ry="24.9"/>
<text text-anchor="middle" x="1407.45" y="-90" font-family="Times New Roman,serif" font-size="14.00">S17</text>
</g>
<!-- S16&#45;&gt;S17 -->
<g id="edge13" class="edge">
<title>S16&#45;&gt;S17</title>
<path fill="none" stroke="black" d="M1322.38,-135.97C1337.81,-128.21 1358.88,-117.62 1376.07,-108.98"/>
<polygon fill="black" stroke="black" points="1377.79,-112.03 1385.15,-104.41 1374.65,-105.77 1377.79,-112.03"/>
<text text-anchor="middle" x="1353.75" y="-129.5" font-family="Times New Roman,serif" font-size="14.00">ε &#160;&#160;&#160;</text>
</g>
<!-- S7 -->
<g id="node17" class="node">
<title>S7</title>
<ellipse fill="none" stroke="black" cx="816.27" cy="-156.7" rx="20.6" ry="20.6"/>
<text text-anchor="middle" x="816.27" y="-153" font-family="Times New Roman,serif" font-size="14.00">S7</text>
</g>
<!-- S2&#45;&gt;S7 -->
<g id="edge17" class="edge">
<title>S2&#45;&gt;S7</title>
<path fill="none" stroke="black" d="M696.71,-156.7C719.8,-156.7 758.2,-156.7 785.02,-156.7"/>
<polygon fill="black" stroke="black" points="785.03,-160.2 795.03,-156.7 785.03,-153.2 785.03,-160.2"/>
<text text-anchor="middle" x="746.07" y="-160.5" font-family="Times New Roman,serif" font-size="14.00">ε</text>
</g>
<!-- S21 -->
<g id="node14" class="node">
<title>S21</title>
<ellipse fill="none" stroke="black" cx="1503.85" cy="-33.7" rx="24.87" ry="24.87"/>
<ellipse fill="none" stroke="black" cx="1503.85" cy="-33.7" rx="28.9" ry="28.9"/>
<text text-anchor="middle" x="1503.85" y="-30" font-family="Times New Roman,serif" font-size="14.00">S21</text>
</g>
<!-- S17&#45;&gt;S21 -->
<g id="edge14" class="edge">
<title>S17&#45;&gt;S21</title>
<path fill="none" stroke="black" d="M1428.93,-80.68C1441.03,-72.99 1456.62,-63.08 1470.36,-54.34"/>
<polygon fill="black" stroke="black" points="1472.51,-57.13 1479.07,-48.81 1468.76,-51.22 1472.51,-57.13"/>
<text text-anchor="middle" x="1453.65" y="-69.5" font-family="Times New Roman,serif" font-size="14.00">ε</text>
</g>
<!-- S18 -->
<g id="node15" class="node">
<title>S18</title>
<ellipse fill="none" stroke="black" cx="256.09" cy="-68.7" rx="24.9" ry="24.9"/>
<text text-anchor="middle" x="256.09" y="-65" font-family="Times New Roman,serif" font-size="14.00">S18</text>
</g>
<!-- S19 -->
<g id="node16" class="node">
<title>S19</title>
<ellipse fill="none" stroke="black" cx="468.09" cy="-24.7" rx="24.9" ry="24.9"/>
<text text-anchor="middle" x="468.09" y="-21" font-family="Times New Roman,serif" font-size="14.00">S19</text>
</g>
<!-- S18&#45;&gt;S19 -->
<g id="edge15" class="edge">
<title>S18&#45;&gt;S19</title>
<path fill="none" stroke="black" d="M280.37,-63.82C317.66,-56.01 390.94,-40.65 433.77,-31.68"/>
<polygon fill="black" stroke="black" points="434.64,-35.07 443.71,-29.6 433.2,-28.22 434.64,-35.07"/>
<text text-anchor="middle" x="332.29" y="-63.5" font-family="Times New Roman,serif" font-size="14.00">Transition e</text>
</g>
<!-- S19&#45;&gt;S21 -->
<g id="edge16" class="edge">
<title>S19&#45;&gt;S21</title>
<path fill="none" stroke="black" d="M493.07,-22.71C520.15,-20.64 565.55,-17.7 604.68,-17.7 604.68,-17.7 604.68,-17.7 1408.45,-17.7 1427.45,-17.7 1448.29,-20.89 1465.55,-24.42"/>
<polygon fill="black" stroke="black" points="1465.27,-27.94 1475.79,-26.63 1466.76,-21.1 1465.27,-27.94"/>
<text text-anchor="middle" x="1046.37" y="-21.5" font-family="Times New Roman,serif" font-size="14.00">ε</text>
</g>
<!-- S3 -->
<g id="node19" class="node">
<title>S3</title>
<ellipse fill="none" stroke="black" cx="969.67" cy="-177.7" rx="20.6" ry="20.6"/>
<text text-anchor="middle" x="969.67" y="-174" font-family="Times New Roman,serif" font-size="14.00">S3</text>
</g>
<!-- S7&#45;&gt;S3 -->
<g id="edge25" class="edge">
<title>S7&#45;&gt;S3</title>
<path fill="none" stroke="black" d="M837.06,-159.44C863.02,-163.04 908.79,-169.39 938.92,-173.57"/>
<polygon fill="black" stroke="black" points="938.48,-177.04 948.87,-174.95 939.45,-170.11 938.48,-177.04"/>
<text text-anchor="middle" x="892.97" y="-175.5" font-family="Times New Roman,serif" font-size="14.00"> &#160;&#160;&#160;&#160;ε &#160;&#160;&#160;&#160;</text>
</g>
<!-- S5 -->
<g id="node22" class="node">
<title>S5</title>
<ellipse fill="none" stroke="black" cx="969.67" cy="-117.7" rx="20.6" ry="20.6"/>
<text text-anchor="middle" x="969.67" y="-114" font-family="Times New Roman,serif" font-size="14.00">S5</text>
</g>
<!-- S7&#45;&gt;S5 -->
<g id="edge26" class="edge">
<title>S7&#45;&gt;S5</title>
<path fill="none" stroke="black" d="M836.33,-151.05C843.42,-148.99 851.55,-146.68 858.97,-144.7 886.13,-137.45 917.25,-129.86 939.4,-124.58"/>
<polygon fill="black" stroke="black" points="940.27,-127.97 949.19,-122.25 938.65,-121.15 940.27,-127.97"/>
<text text-anchor="middle" x="892.97" y="-148.5" font-family="Times New Roman,serif" font-size="14.00"> &#160;&#160;&#160;&#160;&#160;ε &#160;&#160;&#160;&#160;&#160;&#160;</text>
</g>
<!-- S20&#45;&gt;S0 -->
<g id="edge19" class="edge">
<title>S20&#45;&gt;S0</title>
<path fill="none" stroke="black" d="M139.86,-105.22C163.4,-110.83 199.94,-119.55 225.54,-125.65"/>
<polygon fill="black" stroke="black" points="224.9,-129.1 235.44,-128.01 226.53,-122.29 224.9,-129.1"/>
<text text-anchor="middle" x="185.9" y="-126.5" font-family="Times New Roman,serif" font-size="14.00"> &#160;&#160;&#160;&#160;ε &#160;&#160;&#160;&#160;</text>
</g>
<!-- S20&#45;&gt;S18 -->
<g id="edge20" class="edge">
<title>S20&#45;&gt;S18</title>
<path fill="none" stroke="black" d="M139.54,-92.74C145.64,-90.99 152.24,-89.18 158.4,-87.7 179.21,-82.67 202.78,-78.02 221.44,-74.57"/>
<polygon fill="black" stroke="black" points="222.31,-77.97 231.52,-72.74 221.06,-71.09 222.31,-77.97"/>
<text text-anchor="middle" x="185.9" y="-91.5" font-family="Times New Roman,serif" font-size="14.00"> &#160;&#160;&#160;&#160;&#160;ε &#160;&#160;&#160;&#160;&#160;&#160;</text>
</g>
<!-- S4 -->
<g id="node20" class="node">
<title>S4</title>
<ellipse fill="none" stroke="black" cx="1123.06" cy="-177.7" rx="20.6" ry="20.6"/>
<text text-anchor="middle" x="1123.06" y="-174" font-family="Times New Roman,serif" font-size="14.00">S4</text>
</g>
<!-- S3&#45;&gt;S4 -->
<g id="edge21" class="edge">
<title>S3&#45;&gt;S4</title>
<path fill="none" stroke="black" d="M990.77,-177.7C1016.56,-177.7 1061.54,-177.7 1091.56,-177.7"/>
<polygon fill="black" stroke="black" points="1091.88,-181.2 1101.88,-177.7 1091.88,-174.2 1091.88,-181.2"/>
<text text-anchor="middle" x="1046.37" y="-181.5" font-family="Times New Roman,serif" font-size="14.00">Transition a</text>
</g>
<!-- S8 -->
<g id="node21" class="node">
<title>S8</title>
<ellipse fill="none" stroke="black" cx="1211.56" cy="-146.7" rx="20.6" ry="20.6"/>
<text text-anchor="middle" x="1211.56" y="-143" font-family="Times New Roman,serif" font-size="14.00">S8</text>
</g>
<!-- S4&#45;&gt;S8 -->
<g id="edge22" class="edge">
<title>S4&#45;&gt;S8</title>
<path fill="none" stroke="black" d="M1142.83,-170.97C1154.39,-166.83 1169.43,-161.44 1182.4,-156.79"/>
<polygon fill="black" stroke="black" points="1183.59,-160.08 1191.83,-153.41 1181.23,-153.49 1183.59,-160.08"/>
<text text-anchor="middle" x="1169.26" y="-166.5" font-family="Times New Roman,serif" font-size="14.00">ε</text>
</g>
<!-- S8&#45;&gt;S16 -->
<g id="edge27" class="edge">
<title>S8&#45;&gt;S16</title>
<path fill="none" stroke="black" d="M1232.62,-146.7C1242.23,-146.7 1254,-146.7 1264.95,-146.7"/>
<polygon fill="black" stroke="black" points="1265.11,-150.2 1275.1,-146.7 1265.1,-143.2 1265.11,-150.2"/>
<text text-anchor="middle" x="1253.86" y="-150.5" font-family="Times New Roman,serif" font-size="14.00">ε</text>
</g>
<!-- S6 -->
<g id="node23" class="node">
<title>S6</title>
<ellipse fill="none" stroke="black" cx="1123.06" cy="-117.7" rx="20.6" ry="20.6"/>
<text text-anchor="middle" x="1123.06" y="-114" font-family="Times New Roman,serif" font-size="14.00">S6</text>
</g>
<!-- S5&#45;&gt;S6 -->
<g id="edge23" class="edge">
<title>S5&#45;&gt;S6</title>
<path fill="none" stroke="black" d="M990.77,-117.7C1016.56,-117.7 1061.54,-117.7 1091.56,-117.7"/>
<polygon fill="black" stroke="black" points="1091.88,-121.2 1101.88,-117.7 1091.88,-114.2 1091.88,-121.2"/>
<text text-anchor="middle" x="1046.37" y="-121.5" font-family="Times New Roman,serif" font-size="14.00">Transition b</text>
</g>
<!-- S6&#45;&gt;S8 -->
<g id="edge24" class="edge">
<title>S6&#45;&gt;S8</title>
<path fill="none" stroke="black" d="M1143.73,-121.69C1152.69,-123.73 1163.38,-126.46 1172.76,-129.7 1176.13,-130.86 1179.61,-132.21 1183.03,-133.63"/>
<polygon fill="black" stroke="black" points="1181.81,-136.91 1192.37,-137.72 1184.62,-130.5 1181.81,-136.91"/>
<text text-anchor="middle" x="1169.26" y="-133.5" font-family="Times New Roman,serif" font-size="14.00">ε</text>
</g>
</g>
</svg>
