<?xml version="1.0" encoding="UTF-8" standalone="no"?>
<!DOCTYPE svg PUBLIC "-//W3C//DTD SVG 1.1//EN"
 "http://www.w3.org/Graphics/SVG/1.1/DTD/svg11.dtd">
<!-- Generated by graphviz version 2.38.0 (20140413.2041)
 -->
<!-- Title: %3 Pages: 1 -->
<svg width="604pt" height="104pt"
 viewBox="0.00 0.00 604.17 103.60" xmlns="http://www.w3.org/2000/svg" xmlns:xlink="http://www.w3.org/1999/xlink">
<g id="graph0" class="graph" transform="scale(1 1) rotate(0) translate(4 99.5963)">
<title>%3</title>
<polygon fill="white" stroke="none" points="-4,4 -4,-99.5963 600.174,-99.5963 600.174,4 -4,4"/>
<!-- start -->
<g id="node1" class="node"><title>start</title>
<text text-anchor="middle" x="27" y="-39.0982" font-family="Times New Roman,serif" font-size="14.00">start</text>
</g>
<!-- S5 -->
<g id="node8" class="node"><title>S5</title>
<ellipse fill="none" stroke="black" cx="111.798" cy="-42.7982" rx="20.5982" ry="20.5982"/>
<text text-anchor="middle" x="111.798" y="-39.0982" font-family="Times New Roman,serif" font-size="14.00">S5</text>
</g>
<!-- start&#45;&gt;S5 -->
<g id="edge6" class="edge"><title>start&#45;&gt;S5</title>
<path fill="none" stroke="black" d="M54.1979,-42.7982C62.6185,-42.7982 72.0134,-42.7982 80.6916,-42.7982"/>
<polygon fill="black" stroke="black" points="80.8079,-46.2983 90.8078,-42.7982 80.8078,-39.2983 80.8079,-46.2983"/>
</g>
<!-- S0 -->
<g id="node2" class="node"><title>S0</title>
<ellipse fill="none" stroke="black" cx="244.394" cy="-72.7982" rx="20.5982" ry="20.5982"/>
<text text-anchor="middle" x="244.394" y="-69.0982" font-family="Times New Roman,serif" font-size="14.00">S0</text>
</g>
<!-- S1 -->
<g id="node3" class="node"><title>S1</title>
<ellipse fill="none" stroke="black" cx="363.587" cy="-74.7982" rx="20.5982" ry="20.5982"/>
<text text-anchor="middle" x="363.587" y="-71.0982" font-family="Times New Roman,serif" font-size="14.00">S1</text>
</g>
<!-- S0&#45;&gt;S1 -->
<g id="edge1" class="edge"><title>S0&#45;&gt;S1</title>
<path fill="none" stroke="black" d="M265.275,-73.1374C283.71,-73.452 311.4,-73.9246 332.535,-74.2853"/>
<polygon fill="black" stroke="black" points="332.551,-77.786 342.609,-74.4572 332.671,-70.787 332.551,-77.786"/>
<text text-anchor="middle" x="303.991" y="-77.5982" font-family="Times New Roman,serif" font-size="14.00">1</text>
</g>
<!-- S2 -->
<g id="node4" class="node"><title>S2</title>
<ellipse fill="none" stroke="black" cx="482.78" cy="-74.7982" rx="20.5982" ry="20.5982"/>
<text text-anchor="middle" x="482.78" y="-71.0982" font-family="Times New Roman,serif" font-size="14.00">S2</text>
</g>
<!-- S1&#45;&gt;S2 -->
<g id="edge2" class="edge"><title>S1&#45;&gt;S2</title>
<path fill="none" stroke="black" d="M384.467,-74.7982C402.903,-74.7982 430.593,-74.7982 451.728,-74.7982"/>
<polygon fill="black" stroke="black" points="451.802,-78.2983 461.802,-74.7982 451.802,-71.2983 451.802,-78.2983"/>
<text text-anchor="middle" x="423.183" y="-78.5982" font-family="Times New Roman,serif" font-size="14.00">3</text>
</g>
<!-- S6 -->
<g id="node5" class="node"><title>S6</title>
<ellipse fill="none" stroke="black" cx="571.376" cy="-41.7982" rx="20.6302" ry="20.6302"/>
<ellipse fill="none" stroke="black" cx="571.376" cy="-41.7982" rx="24.5979" ry="24.5979"/>
<text text-anchor="middle" x="571.376" y="-38.0982" font-family="Times New Roman,serif" font-size="14.00">S6</text>
</g>
<!-- S2&#45;&gt;S6 -->
<g id="edge3" class="edge"><title>S2&#45;&gt;S6</title>
<path fill="none" stroke="black" d="M502.57,-67.6376C513.089,-63.629 526.486,-58.5238 538.589,-53.9116"/>
<polygon fill="black" stroke="black" points="539.84,-57.1804 547.938,-50.3488 537.347,-50.6393 539.84,-57.1804"/>
<text text-anchor="middle" x="525.078" y="-64.5982" font-family="Times New Roman,serif" font-size="14.00">ε</text>
</g>
<!-- S3 -->
<g id="node6" class="node"><title>S3</title>
<ellipse fill="none" stroke="black" cx="303.991" cy="-20.7982" rx="20.5982" ry="20.5982"/>
<text text-anchor="middle" x="303.991" y="-17.0982" font-family="Times New Roman,serif" font-size="14.00">S3</text>
</g>
<!-- S4 -->
<g id="node7" class="node"><title>S4</title>
<ellipse fill="none" stroke="black" cx="423.183" cy="-20.7982" rx="20.5982" ry="20.5982"/>
<text text-anchor="middle" x="423.183" y="-17.0982" font-family="Times New Roman,serif" font-size="14.00">S4</text>
</g>
<!-- S3&#45;&gt;S4 -->
<g id="edge4" class="edge"><title>S3&#45;&gt;S4</title>
<path fill="none" stroke="black" d="M324.871,-20.7982C343.306,-20.7982 370.997,-20.7982 392.131,-20.7982"/>
<polygon fill="black" stroke="black" points="392.206,-24.2983 402.206,-20.7982 392.206,-17.2983 392.206,-24.2983"/>
<text text-anchor="middle" x="363.587" y="-24.5982" font-family="Times New Roman,serif" font-size="14.00">4</text>
</g>
<!-- S4&#45;&gt;S6 -->
<g id="edge5" class="edge"><title>S4&#45;&gt;S6</title>
<path fill="none" stroke="black" d="M444.133,-22.6976C460.217,-24.3161 483.401,-26.8454 503.578,-29.7982 514.42,-31.3849 526.2,-33.4024 536.806,-35.3284"/>
<polygon fill="black" stroke="black" points="536.472,-38.8259 546.942,-37.2044 537.746,-31.9428 536.472,-38.8259"/>
<text text-anchor="middle" x="482.78" y="-33.5982" font-family="Times New Roman,serif" font-size="14.00">ε</text>
</g>
<!-- S5&#45;&gt;S0 -->
<g id="edge7" class="edge"><title>S5&#45;&gt;S0</title>
<path fill="none" stroke="black" d="M132.35,-47.2895C153.892,-52.2381 188.785,-60.2534 213.707,-65.9784"/>
<polygon fill="black" stroke="black" points="213.179,-69.4484 223.709,-68.2761 214.747,-62.6261 213.179,-69.4484"/>
<text text-anchor="middle" x="178.096" y="-68.5982" font-family="Times New Roman,serif" font-size="14.00"> &#160;&#160;&#160;&#160;ε &#160;&#160;&#160;&#160;</text>
</g>
<!-- S5&#45;&gt;S3 -->
<g id="edge8" class="edge"><title>S5&#45;&gt;S3</title>
<path fill="none" stroke="black" d="M131.88,-37.0347C137.827,-35.4324 144.44,-33.8461 150.596,-32.7982 192.723,-25.6272 242.144,-22.7296 273.019,-21.5666"/>
<polygon fill="black" stroke="black" points="273.248,-25.061 283.123,-21.2235 273.01,-18.065 273.248,-25.061"/>
<text text-anchor="middle" x="178.096" y="-36.5982" font-family="Times New Roman,serif" font-size="14.00"> &#160;&#160;&#160;&#160;&#160;ε &#160;&#160;&#160;&#160;&#160;&#160;</text>
</g>
</g>
</svg>
